 http://www.shotpix.com/images/94452940557987687317.jpg

General
Complete name                            : Flo Rida - Whistle [Music Video] 1080p [Sbyky].mp4
Format                                   : MPEG-4
Format profile                           : Base Media / Version 2
Codec ID                                 : mp42
File size                                : 145 MiB
Duration                                 : 3mn 54s
Overall bit rate mode                    : Variable
Overall bit rate                         : 5 212 Kbps
Encoded date                             : UTC 2012-05-23 18:56:43
Tagged date                              : UTC 2012-05-23 18:56:43
gsst                                     : 0
gstd                                     : 234150
gssd                                     : BADC23D22HH1357547992129645
gshh                                     :

Video
ID                                       : 1
Format                                   : AVC
Format/Info                              : Advanced Video Codec
Format profile                           : High@L4.0
Format settings, CABAC                   : Yes
Format settings, ReFrames                : 1 frame
Format settings, GOP                     : M=1, N=24
Codec ID                                 : avc1
Codec ID/Info                            : Advanced Video Coding
Duration                                 : 3mn 54s
Bit rate                                 : 5 063 Kbps
Maximum bit rate                         : 13.1 Mbps
Width                                    : 1 920 pixels
Height                                   : 1 080 pixels
Display aspect ratio                     : 16:9
Frame rate mode                          : Constant
Frame rate                               : 23.976 fps
Color space                              : YUV
Chroma subsampling                       : 4:2:0
Bit depth                                : 8 bits
Scan type                                : Progressive
Bits/(Pixel*Frame)                       : 0.102
Stream size                              : 141 MiB (97%)
Tagged date                              : UTC 2012-05-23 18:56:43

Audio
ID                                       : 2
Format                                   : AAC
Format/Info                              : Advanced Audio Codec
Format profile                           : LC
Codec ID                                 : 40
Duration                                 : 3mn 54s
Bit rate mode                            : Variable
Bit rate                                 : 144 Kbps
Maximum bit rate                         : 193 Kbps
Channel(s)                               : 2 channels
Channel positions                        : Front: L R
Sampling rate                            : 44.1 KHz
Compression mode                         : Lossy
Stream size                              : 4.08 MiB (3%)
Title                                    : IsoMedia File Produced by Google, 5-11-2011
Encoded date                             : UTC 2012-05-23 18:56:43
Tagged date                              : UTC 2012-05-23 18:56:43

Shared By Sbyky 
http://www.shotpix.com/images/65449402944248708647.gif